# xmcd
#
# Track frame offsets:
#	150
#	17258
#	36309
#	52568
#	69039
#	87547
#	100575
#	115861
#	132956
#	156294
#	170662
#	182676
#	196071
#	206159
#
# Disc length: 2913 seconds
#
# Revision: 1
# Processed by: cddbd v1.5.2PL0 Copyright (c) Steve Scherf et al.
# Submitted via: audiograbber 1.83.01
#
DISCID=ad0b5f0e
DTITLE=Coad Sisters - The Journey
DYEAR=2019
DGENRE=Country
TTITLE0=Sandy From Tennant Creek
TTITLE1=Silver Wings
TTITLE2=Showtime
TTITLE3=Flinders Ranges Yodel
TTITLE4=The Journey
TTITLE5=Humidity Blues
TTITLE6=Until The End Of Time
TTITLE7=Stranger In Your Heart
TTITLE8=She Still Waits
TTITLE9=Country In My Veins
TTITLE10=Blue
TTITLE11=Without You
TTITLE12=Won't Be Here Again
TTITLE13=When My Blue Moon Turns Gold Again
EXTD=
EXTT0=
EXTT1=
EXTT2=
EXTT3=
EXTT4=
EXTT5=
EXTT6=
EXTT7=
EXTT8=
EXTT9=
EXTT10=
EXTT11=
EXTT12=
EXTT13=
PLAYORDER=
